<?xml version="1.0"?>
<svg width="512" height="512" xmlns="http://www.w3.org/2000/svg" xmlns:svg="http://www.w3.org/2000/svg">
 <!--!Font Awesome Free 6.6.0 by @fontawesome - https://fontawesome.com License - https://fontawesome.com/license/free Copyright 2024 Fonticons, Inc.-->
 <g class="layer">
  <title>Layer 1</title>
  <path d="m217.9,105.9l122.8,122.8c7.2,7.2 11.3,17.1 11.3,27.3s-4.1,20.1 -11.3,27.3l-122.8,122.8c-6.4,6.4 -15,9.9 -24,9.9c-18.7,0 -33.9,-15.2 -33.9,-33.9l0,-62.1l-128,0c-17.7,0 -32,-14.3 -32,-32l0,-64c0,-17.7 14.3,-32 32,-32l128,0l0,-62.1c0,-18.7 15.2,-33.9 33.9,-33.9c9,0 17.6,3.6 24,9.9zm134.1,310.1l64,0c17.7,0 32,-14.3 32,-32l0,-256c0,-17.7 -14.3,-32 -32,-32l-64,0c-17.7,0 -32,-14.3 -32,-32s14.3,-32 32,-32l64,0c53,0 96,43 96,96l0,256c0,53 -43,96 -96,96l-64,0c-17.7,0 -32,-14.3 -32,-32s14.3,-32 32,-32z" fill="#00bf00" id="svg_1"/>
 </g>
</svg>